<svg width="1200" height="320" viewBox="0 0 1200 320" fill="none" xmlns="http://www.w3.org/2000/svg" role="img" aria-labelledby="title desc">
  <title id="title">Panacota96 cyberpunk header</title>
  <desc id="desc">A dark cyberpunk-style header with a hexagonal DS logo, the Panacota96 wordmark, and a subtitle about cybersecurity engineering and education.</desc>
  <defs>
    <linearGradient id="bg" x1="60" y1="28" x2="1120" y2="292" gradientUnits="userSpaceOnUse">
      <stop stop-color="#07111F"/>
      <stop offset="0.55" stop-color="#0A1728"/>
      <stop offset="1" stop-color="#112944"/>
    </linearGradient>
    <radialGradient id="wash" cx="0" cy="0" r="1" gradientUnits="userSpaceOnUse" gradientTransform="translate(944 92) rotate(133.152) scale(340 260)">
      <stop stop-color="#4ECFFF" stop-opacity="0.26"/>
      <stop offset="1" stop-color="#4ECFFF" stop-opacity="0"/>
    </radialGradient>
    <filter id="glow" x="-50%" y="-50%" width="200%" height="200%">
      <feGaussianBlur stdDeviation="8" result="blur"/>
      <feMerge>
        <feMergeNode in="blur"/>
        <feMergeNode in="SourceGraphic"/>
      </feMerge>
    </filter>
    <style>
      .ui {
        font-family: "Segoe UI", "Helvetica Neue", Arial, sans-serif;
      }
      .mono {
        font-family: Consolas, "Liberation Mono", Menlo, monospace;
      }
      .headline {
        fill: #F3F9FF;
        font-size: 54px;
        font-weight: 700;
        letter-spacing: -0.03em;
      }
      .sub {
        fill: #A7C4E3;
        font-size: 20px;
        font-weight: 500;
      }
      .micro {
        fill: #88D6FF;
        font-size: 13px;
        font-weight: 600;
        letter-spacing: 0.1em;
      }
      .pill {
        fill: #E8F5FF;
        font-size: 14px;
        font-weight: 600;
      }
    </style>
  </defs>

  <rect x="8" y="8" width="1184" height="304" rx="24" fill="url(#bg)"/>
  <rect x="8.5" y="8.5" width="1183" height="303" rx="23.5" stroke="#2A4664"/>
  <rect x="8" y="8" width="1184" height="304" rx="24" fill="url(#wash)"/>

  <g opacity="0.11">
    <path d="M56 60H1144" stroke="#9ABBDD"/>
    <path d="M56 98H1144" stroke="#9ABBDD"/>
    <path d="M56 136H1144" stroke="#9ABBDD"/>
    <path d="M56 174H1144" stroke="#9ABBDD"/>
    <path d="M56 212H1144" stroke="#9ABBDD"/>
    <path d="M56 250H1144" stroke="#9ABBDD"/>
    <path d="M112 34V286" stroke="#9ABBDD"/>
    <path d="M210 34V286" stroke="#9ABBDD"/>
    <path d="M308 34V286" stroke="#9ABBDD"/>
    <path d="M406 34V286" stroke="#9ABBDD"/>
    <path d="M504 34V286" stroke="#9ABBDD"/>
    <path d="M602 34V286" stroke="#9ABBDD"/>
    <path d="M700 34V286" stroke="#9ABBDD"/>
    <path d="M798 34V286" stroke="#9ABBDD"/>
    <path d="M896 34V286" stroke="#9ABBDD"/>
    <path d="M994 34V286" stroke="#9ABBDD"/>
    <path d="M1092 34V286" stroke="#9ABBDD"/>
  </g>

  <g transform="translate(78 46)">
    <rect x="0" y="0" width="150" height="30" rx="15" fill="#0D1E30" stroke="#2B4D6C"/>
    <text x="22" y="20" class="mono micro">&gt; PANACOTA96</text>

    <g transform="translate(0 52)">
      <path d="M56 0L104.5 28V84C104.5 119 84.5 151.5 56 168C27.5 151.5 7.5 119 7.5 84V28L56 0Z" fill="#0D1B2C" stroke="#83DFFF" stroke-width="3" filter="url(#glow)"/>
      <path d="M56 22L85.5 39V76C85.5 98 73 118 56 128C39 118 26.5 98 26.5 76V39L56 22Z" fill="#112640" stroke="#83DFFF" stroke-width="2.5"/>
      <text x="29" y="89" class="ui" font-size="48" font-weight="700" fill="#F4FAFF">DS</text>
      <path d="M-4 74H18" stroke="#83DFFF" stroke-width="3" stroke-linecap="round"/>
      <path d="M-4 56V74" stroke="#83DFFF" stroke-width="3" stroke-linecap="round"/>
      <circle cx="20" cy="74" r="4" fill="#56E4CA"/>
      <path d="M93 102H114" stroke="#56E4CA" stroke-width="3" stroke-linecap="round"/>
      <path d="M114 83V102" stroke="#56E4CA" stroke-width="3" stroke-linecap="round"/>
      <circle cx="91" cy="102" r="4" fill="#83DFFF"/>
    </g>
  </g>

  <g transform="translate(272 82)">
    <text x="0" y="0" class="micro">DAVID SANTIAGO GONZALEZ RICO</text>
    <text x="0" y="62" class="ui headline">Panacota96</text>
    <text x="0" y="98" class="ui sub">Cybersecurity engineer focused on SecOps, labs, and practical security education.</text>

    <g transform="translate(0 136)">
      <rect x="0" y="0" width="128" height="34" rx="17" fill="#0B1C2F" stroke="#30577D"/>
      <text x="33" y="22" class="ui pill">SecOps</text>
    </g>
    <g transform="translate(142 136)">
      <rect x="0" y="0" width="164" height="34" rx="17" fill="#0B1C2F" stroke="#30577D"/>
      <text x="31" y="22" class="ui pill">Blue Team</text>
    </g>
    <g transform="translate(320 136)">
      <rect x="0" y="0" width="190" height="34" rx="17" fill="#0B1C2F" stroke="#30577D"/>
      <text x="32" y="22" class="ui pill">Security Education</text>
    </g>
  </g>

  <g transform="translate(874 74)">
    <rect x="0" y="130" width="244" height="42" rx="12" fill="#091726" stroke="#264363"/>
    <text x="22" y="156" class="mono" font-size="16" fill="#94DBFF">$ secure --teach --build</text>

    <circle cx="124" cy="52" r="76" fill="#2AA8FF" opacity="0.14" filter="url(#glow)"/>
    <path d="M124 2L175 31V92C175 128 153 161 124 178C95 161 73 128 73 92V31L124 2Z" fill="#0B1C2F" stroke="#75BCFF" stroke-width="2.5"/>
    <path d="M124 26L156 44V86C156 110 142 131 124 142C106 131 92 110 92 86V44L124 26Z" fill="#102640" stroke="#75BCFF" stroke-width="2.5"/>
    <path d="M124 56V96" stroke="#B8E6FF" stroke-width="8" stroke-linecap="round"/>
    <path d="M104 76H144" stroke="#B8E6FF" stroke-width="8" stroke-linecap="round"/>
    <circle cx="58" cy="24" r="5" fill="#56E4CA"/>
    <path d="M58 24H32V58" stroke="#56E4CA" stroke-width="2.5"/>
    <path d="M188 110H212V83" stroke="#56E4CA" stroke-width="2.5"/>
  </g>
</svg>
